<?xml version="1.0" encoding="utf-8"?>
<!-- Generator: Adobe Illustrator 25.3.0, SVG Export Plug-In . SVG Version: 6.00 Build 0)  -->
<svg version="1.1" id="Layer_1" xmlns="http://www.w3.org/2000/svg" xmlns:xlink="http://www.w3.org/1999/xlink" x="0px" y="0px"
	 viewBox="0 0 32 32" style="enable-background:new 0 0 32 32;" xml:space="preserve">
<style type="text/css">
	.st0{fill:#1F1C1D;}
	.st1{fill:none;stroke:#A07B50;stroke-width:0.85;stroke-linecap:round;stroke-linejoin:round;stroke-miterlimit:10;}
</style>
<g>
	<g id="Layer_1_1_">
		<path class="st0" d="M4,0h24c2.2,0,4,1.8,4,4v24c0,2.2-1.8,4-4,4H4c-2.2,0-4-1.8-4-4V4C0,1.8,1.8,0,4,0z"/>
	</g>
	<g id="Layer_2_1_">
		<path class="st1" d="M3.5,12.1l2.9,8.7h19.2l2.9-8.7l-2.1,2.6c-0.9,1.1-2.5,1-3.2-0.3l-2.4-4.2l-3.3,4.5c-0.8,1.1-2.4,1.1-3.2,0
			l-3.2-4.5l-2.4,4.2c-0.7,1.2-2.3,1.3-3.2,0.3L3.5,12.1z"/>
	</g>
</g>
</svg>
